<svg width="49" height="49" viewBox="0 0 49 49" fill="none" xmlns="http://www.w3.org/2000/svg">
<rect x="0.646973" y="0.83606" width="48" height="48" rx="4" fill="white"/>
<g clip-path="url(#clip0_25_168)">
<mask id="mask0_25_168" style="mask-type:luminance" maskUnits="userSpaceOnUse" x="3" y="3" width="44" height="44">
<path d="M3.05566 3.24485H46.4134V46.6025H3.05566V3.24485Z" fill="white"/>
</mask>
<g mask="url(#mask0_25_168)">
<path d="M37.667 18.0151C38.8081 20.0971 39.4574 22.4864 39.4574 25.028C39.4574 30.4211 36.5348 35.1295 32.1888 37.6633L36.6536 24.7541C37.4876 22.6686 37.7653 21.0011 37.7653 19.5183C37.7653 18.9801 37.7298 18.4807 37.667 18.0151ZM26.8541 18.1742C27.7342 18.128 28.5272 18.0354 28.5272 18.0354C29.3148 17.9421 29.2219 16.7845 28.4339 16.8307C28.4339 16.8307 26.0661 17.0165 24.5376 17.0165C23.1013 17.0165 20.6877 16.8307 20.6877 16.8307C19.8993 16.7845 19.8069 17.9888 20.5949 18.0354C20.5949 18.0354 21.3406 18.128 22.1283 18.1742L24.4056 24.4145L21.2061 34.0087L15.8831 18.1742C16.7638 18.128 17.556 18.0354 17.556 18.0354C18.3431 17.9421 18.2502 16.7845 17.4625 16.8307C17.4625 16.8307 15.0952 17.0165 13.5665 17.0165C13.2923 17.0165 12.969 17.0098 12.6257 16.9988C15.2396 13.0305 19.7323 10.4099 24.8395 10.4099C28.645 10.4099 32.1102 11.865 34.7108 14.248C34.6478 14.2442 34.5864 14.2363 34.5215 14.2363C33.0856 14.2363 32.0667 15.4871 32.0667 16.8307C32.0667 18.0354 32.7618 19.0546 33.5026 20.2592C34.0585 21.2328 34.7079 22.4835 34.7079 24.2908C34.7079 25.5418 34.2266 26.9937 33.5955 29.0164L32.137 33.8881L26.8541 18.1742ZM24.8395 39.6473C23.4046 39.6473 22.0197 39.4369 20.7097 39.0517L25.0962 26.3067L29.5893 38.617C29.6189 38.6893 29.6552 38.7559 29.6939 38.8185C28.1745 39.3534 26.5418 39.6473 24.8395 39.6473ZM10.2214 25.028C10.2214 22.9087 10.676 20.8968 11.4873 19.0789L18.4604 38.1842C13.5836 35.815 10.2214 30.8142 10.2214 25.028ZM24.8395 8.7694C15.8743 8.7694 8.58057 16.063 8.58057 25.028C8.58057 33.9934 15.8743 41.2878 24.8395 41.2878C33.8046 41.2878 41.0987 33.9934 41.0987 25.028C41.0987 16.063 33.8046 8.7694 24.8395 8.7694Z" fill="#3F3C3C"/>
</g>
</g>
<defs>
<clipPath id="clip0_25_168">
<rect width="43.3577" height="43.3577" fill="white" transform="translate(3.05566 3.24487)"/>
</clipPath>
</defs>
</svg>
